<svg xmlns="http://www.w3.org/2000/svg" width="256" height="256"><defs><clipPath id="a"><path d="M36 54h52v53H36Zm0 0"/></clipPath><clipPath id="b"><path d="m127.996 208-77.285-77.285c-18.969-18.969-18.969-49.512 0-68.48 18.973-18.973 49.516-18.973 68.488 0l8.797 8.796Zm0 0"/></clipPath><clipPath id="c"><path d="M36 48h92v160H36Zm0 0"/></clipPath><clipPath id="d"><path d="m127.996 208-77.285-77.285c-18.969-18.969-18.969-49.512 0-68.48 18.973-18.973 49.516-18.973 68.488 0l8.797 8.796Zm0 0"/></clipPath><clipPath id="e"><path d="M36 48h71v160H36Zm0 0"/></clipPath><clipPath id="f"><path d="m127.996 208-77.285-77.285c-18.969-18.969-18.969-49.512 0-68.48 18.973-18.973 49.516-18.973 68.488 0l8.797 8.796Zm0 0"/></clipPath><clipPath id="g"><path d="M127 48h93v81h-93Zm0 0"/></clipPath><clipPath id="h"><path d="m127.996 208 77.285-77.285c18.969-18.969 18.969-49.512 0-68.48-18.972-18.973-49.515-18.973-68.484 0l-8.8 8.796Zm0 0"/></clipPath><clipPath id="i"><path d="M127 128h93v80h-93Zm0 0"/></clipPath><clipPath id="j"><path d="m127.996 208 77.285-77.285c18.969-18.969 18.969-49.512 0-68.48-18.972-18.973-49.515-18.973-68.484 0l-8.8 8.796Zm0 0"/></clipPath></defs><path style="stroke:none;fill-rule:nonzero;fill:transparent;fill-opacity:1" d="M0 .008h255.992V256H0V.008"/><g clip-path="url(#a)"><g clip-path="url(#b)"><path style="stroke:none;fill-rule:nonzero;fill:#012169;fill-opacity:1" d="m36.484 54.98 51.235 51.235H36.484V54.98"/></g></g><g clip-path="url(#c)"><g clip-path="url(#d)"><path style="stroke:none;fill-rule:nonzero;fill:#fff;fill-opacity:1" d="M36.484 36.492V54.98l51.235 51.235H36.484v43.578H87.72l-51.235 51.234v18.489h18.489l51.234-51.235v51.235h43.578V168.28l51.235 51.235h18.488v-18.489l-51.235-51.234h51.235v-43.578h-51.235l51.235-51.235V36.492H201.02l-51.235 51.235V36.492h-43.578v51.235L54.973 36.492H36.484"/><path style="stroke:none;fill-rule:nonzero;fill:#c8102e;fill-opacity:1" d="M114.926 36.492v78.438H36.484v26.144h78.442v78.442h26.144v-78.442h78.438V114.93H141.07V36.492h-26.144"/></g></g><g clip-path="url(#e)"><g clip-path="url(#f)"><path style="stroke:none;fill-rule:nonzero;fill:#c8102e;fill-opacity:1" d="M36.484 36.492v12.324l57.399 57.399h12.324L36.484 36.492m12.328 183.024 57.395-57.399v-12.324l-69.723 69.723h12.328"/><path style="stroke:none;fill-rule:nonzero;fill:#012169;fill-opacity:1" d="m54.973 36.492 51.234 51.235V36.492H54.973M36.484 201.027l51.235-51.234H36.484v51.234m18.489 18.489 51.234-51.235v51.235H54.973"/></g></g><g clip-path="url(#g)"><g clip-path="url(#h)"><path style="stroke:none;fill-rule:nonzero;fill:#005bbb;fill-opacity:1" d="M228.23 48.004H26.316v80H228.23v-80"/></g></g><g clip-path="url(#i)"><g clip-path="url(#j)"><path style="stroke:none;fill-rule:nonzero;fill:#ffd500;fill-opacity:1" d="M228.23 128.004H26.316V208H228.23v-79.996"/></g></g></svg>